<svg id="coruja" xmlns="http://www.w3.org/2000/svg" width="181.7" height="50.726" viewBox="0 0 181.7 50.726">
  <path id="Path_36" data-name="Path 36" d="M505.165,734.4a14.122,14.122,0,0,1-.719-4.722v-.763a31.315,31.315,0,0,0-7.395-2.512c-7.572-1.616-15.517,1.012-21.2-.888s-9.978-6.214-10.812-6.214.231,2.725,1.527,4.021,5.752,3.551,5.752,3.551a26.116,26.116,0,0,1-12.268,0c-6.329-1.669-12.295-5.175-12.889-4.581s6.374,7.856,17.505,9.516,17.461-.826,23.817-.826c5.8,0,15.588,2.912,15.588,3.32s-9.374-2.264-14.967-2.264-14.461,2.361-24.856.888a62.77,62.77,0,0,1-21.367-7.554c-7.306-3.986-13.369-9.41-13.724-9.055s.595,3.453,1.882,4.74c3.4,3.4,6.906,4.8,9.765,8.38-3.817.186-11.025-3.986-10.857-3.142,1.03,5.122,12.854,6.019,13.253,6.418.257.257,1.438,1.34,1.438,1.34-2.61,1.234-9.152.834-9.152.834,1.269,3.373,9.569,2.912,12.845,2.912l1.678.888c-1.971,1.074-6.8,1.678-6.755,1.775.941,1.509,7.1,2.317,10.652.888l2.707.994s-5.175,2.077-3.861,2.352c2.805.586,6.374-.888,6.374-.888s-.249,2.317,1.047,2.663,5.77-.6,5.77-.6-.834,2.131.462,2.592,5.85-1.34,5.85-1.34.657,1.758,2.024,1.758a30.247,30.247,0,0,0,4.927-.968s-.08,1.775,1.3,1.775,4.989-1.429,4.989-1.429-.044.888,1.252,1.429,4.572-1.243,4.572-1.243-.089,1.012,1.3,1.34,4.8-1.775,4.8-1.775-.142.888,1.385,1.243c1.2.293,5.521-2.059,7.332-3.089C504.828,742.816,504.8,738.643,505.165,734.4Z" transform="translate(-429.085 -716.217)" fill="#fff"/>
  <path id="Path_37" data-name="Path 37" d="M612.322,729.339c2.894-3.551,6.409-4.98,9.765-8.38,1.278-1.287,2.193-4.439,1.873-4.74s-6.418,5.069-13.715,9.055a62.909,62.909,0,0,1-21.367,7.554c-10.422,1.5-19.29-.888-24.855-.888s-14.967,2.663-14.967,2.264,9.765-3.32,15.588-3.32c6.356,0,12.685,2.494,23.817.826s18.109-8.877,17.514-9.516-6.56,2.912-12.889,4.581a26.161,26.161,0,0,1-12.277,0s4.439-2.219,5.761-3.551,2.352-4.021,1.518-4.021-5.122,4.3-10.8,6.214-13.635-.692-21.207.888a31.318,31.318,0,0,0-7.395,2.512v.763a14.118,14.118,0,0,1-.728,4.723c.364,4.243.337,8.415-.985,11.824,1.775,1.03,6.125,3.382,7.323,3.089,1.527-.364,1.385-1.243,1.385-1.243s3.418,2.077,4.811,1.775,1.287-1.34,1.287-1.34,3.285,1.775,4.572,1.243,1.252-1.429,1.252-1.429,3.6,1.429,4.989,1.429,1.3-1.775,1.3-1.775a30.175,30.175,0,0,0,4.936.968c1.385,0,1.953-1.935,1.953-1.935s4.554,1.775,5.85,1.34.462-2.592.462-2.592,4.438.888,5.779.6,1.039-2.663,1.039-2.663,3.551,1.456,6.383.888c1.3-.275-3.87-2.352-3.87-2.352l2.663-.994c3.622,1.42,9.765.613,10.7-.888,0-.053-4.794-.657-6.755-1.775l1.669-.888c3.276,0,11.54.462,12.845-2.912,0,0-6.542.4-9.143-.834,0,0,1.172-1.083,1.429-1.34.4-.4,12.232-1.3,13.262-6.418C623.339,725.317,616.13,729.49,612.322,729.339Z" transform="translate(-442.324 -716.206)" fill="#fff"/>
  <path id="Path_38" data-name="Path 38" d="M531.054,758.619h-1.616c-.453,2.787-1.6,9.987-1.6,11.07,0,1.225,1.909,2.006,3.214,2.006s3.213-.781,3.213-2.006c0-1.083-1.145-8.282-1.6-11.07C532.145,758.6,531.613,758.619,531.054,758.619Z" transform="translate(-440.176 -720.968)" fill="#fff"/>
  <path id="Path_39" data-name="Path 39" d="M519.083,755.48c-2.264,2.326-6.445,6.64-7.013,7.439a1.775,1.775,0,0,0,0,1.775,4.323,4.323,0,0,0,3.835,2.521,1.625,1.625,0,0,0,1.4-.621c.586-.834,3.462-6.658,4.838-9.463A12.32,12.32,0,0,1,519.083,755.48Z" transform="translate(-438.378 -720.617)" fill="#fff"/>
  <path id="Path_40" data-name="Path 40" d="M524.05,757.77c-1.438,2.814-4.314,8.513-4.634,9.481a1.838,1.838,0,0,0,.559,1.669,4.323,4.323,0,0,0,3.249,1.42c.941,0,2.042-.293,2.308-1.119.328-1.012,1.4-7.9,1.846-10.83A18.492,18.492,0,0,1,524.05,757.77Z" transform="translate(-439.227 -720.874)" fill="#fff"/>
  <path id="Path_41" data-name="Path 41" d="M537.868,757.77a18.437,18.437,0,0,1-3.338.621c.444,2.929,1.527,9.818,1.846,10.83.266.826,1.376,1.119,2.317,1.119h0a4.525,4.525,0,0,0,1.358-.2,4.437,4.437,0,0,0,1.882-1.216,1.838,1.838,0,0,0,.559-1.669C542.182,766.283,539.3,760.584,537.868,757.77Z" transform="translate(-440.927 -720.874)" fill="#fff"/>
  <path id="Path_42" data-name="Path 42" d="M549.594,762.919c-.559-.8-4.74-5.113-7.013-7.439a12.013,12.013,0,0,1-3.071,1.678c1.376,2.805,4.252,8.628,4.838,9.463a1.625,1.625,0,0,0,1.376.577,4.323,4.323,0,0,0,3.844-2.521,1.829,1.829,0,0,0,.027-1.758Z" transform="translate(-441.486 -720.617)" fill="#fff"/>
  <path id="Path_43" data-name="Path 43" d="M538.579,742.179a12.152,12.152,0,0,1-2.379.24h0a11.674,11.674,0,0,1-6.365-1.962l-.133-.08-.124.08a11.708,11.708,0,0,1-6.365,1.962,12.242,12.242,0,0,1-2.388-.24,7.43,7.43,0,0,1-4.953-3.249c-.453,8.522,1.287,16.369,13.83,16.369s14.292-7.847,13.83-16.369A7.43,7.43,0,0,1,538.579,742.179Z" transform="translate(-438.825 -718.758)" fill="#fff"/>
  <path id="Path_44" data-name="Path 44" d="M537.2,720.411a6.457,6.457,0,0,0-1.367-.151,8.4,8.4,0,0,0-5.379,2.21l-.888.888-.888-.888a8.531,8.531,0,0,0-5.379-2.21,6.437,6.437,0,0,0-1.358.151,9.765,9.765,0,0,0-6.826,9.711c0,2.663.542,7.838,5.752,8.877s8.114-1.944,8.664-1.944,3.453,2.983,8.664,1.944,5.752-6.214,5.752-8.877A9.765,9.765,0,0,0,537.2,720.411Zm-14.789,13.821a4.3,4.3,0,1,1,4.3-4.3A4.3,4.3,0,0,1,522.416,734.232Zm7.208,1.624c-.621,0-1.527-2.361-1.527-3.125s1.047-.888,1.527-.888,1.527.133,1.527.888-.905,3.08-1.527,3.08Zm7.208-1.624a4.3,4.3,0,1,1,4.3-4.3,4.3,4.3,0,0,1-4.3,4.3Z" transform="translate(-438.746 -716.661)" fill="#fff"/>
  <path id="Path_45" data-name="Path 45" d="M539.294,728.56a2.264,2.264,0,1,0,2.264,2.264A2.264,2.264,0,0,0,539.294,728.56Z" transform="translate(-441.208 -717.594)" fill="#fff"/>
  <path id="Path_46" data-name="Path 46" d="M523.054,728.56a2.264,2.264,0,1,1-2.264,2.264A2.264,2.264,0,0,1,523.054,728.56Z" transform="translate(-439.384 -717.594)" fill="#fff"/>
  <path id="Path_47" data-name="Path 47" d="M530.988,721.579a9.41,9.41,0,0,1,3.728-2.228,30.226,30.226,0,0,0-7.457,0,9.409,9.409,0,0,1,3.728,2.228Z" transform="translate(-440.111 -716.534)" fill="#fff"/>
</svg>
