<svg xmlns="http://www.w3.org/2000/svg" width="165.831" height="92.185" viewBox="0 0 165.831 92.185">
  <g id="eagle" transform="translate(0 0)">
    <path id="Path_49" data-name="Path 49" d="M336.291,699.894a1.012,1.012,0,0,1-.986-.713l-.063-.231a1.6,1.6,0,0,1-1.049.414,1.725,1.725,0,0,1-.43-.058,1.662,1.662,0,0,1-1.112-1.049,1.049,1.049,0,0,1-1.51-.556l-.026-.068a5.242,5.242,0,0,1-.236-.7,2.521,2.521,0,0,1-.818.163,1.472,1.472,0,0,1-.708-.173,1.164,1.164,0,0,1-.572-.923h-.089a2.5,2.5,0,0,1-2.255-1.049c-.907-1.39-.414-3.739.288-5.333l.042-.1c1.725-3.933,3.215-7.342,2.827-11.6-.026-.2-.089-.75-.089-.75v-.194l.257-.052h-.288c-.037-.33-.073-.671-.1-1.012l-.257-1.1a7.788,7.788,0,0,1-3.183-1.856h0a.965.965,0,0,1-.593.593,2.316,2.316,0,0,1-.7.115c-2.25,0-3.854-3.54-4.625-5.244l-.152-.336c.115.9.215,1.814.246,2.732a.923.923,0,0,1-.246.687,1,1,0,0,1-.718.288,1.049,1.049,0,0,1-.871-.451,13.713,13.713,0,0,1-1.83-5.433,10.2,10.2,0,0,1-1.232,4.132.755.755,0,0,1-.666.4.87.87,0,0,1-.839-.781c-.094-.9-.189-1.793-.288-2.69-.147-1.322-.294-2.674-.425-4.027a15.426,15.426,0,0,1-1.689,4.657,1,1,0,0,1-.881.493,1.075,1.075,0,0,1-.776-.32.928.928,0,0,1-.262-.7l.031-1.049c.058-1.767.115-3.576.262-5.386a7.684,7.684,0,0,1-.986,1.6.808.808,0,0,1-.467.267.931.931,0,0,1-.215,0,.66.66,0,0,1-.257-.047h-.031l-.1-.042-.561-.22.21-.063a.708.708,0,0,1-.136-.325,11.4,11.4,0,0,1-.058-2.973c-.9,1.143-1.825,2.355-2.664,3.624a.965.965,0,0,1-.823.43,1.013,1.013,0,0,1-.823-.4.865.865,0,0,1-.1-.8,36.2,36.2,0,0,1,1.872-4.342,45.987,45.987,0,0,0-4.012,3.922.65.65,0,0,1-.5.241.724.724,0,0,1-.524-.257.844.844,0,0,1-.2-.645,9.113,9.113,0,0,1,1.049-3.089c-.755.456-1.474.965-2.176,1.458s-1.306.923-2,1.353a.8.8,0,0,1-.425.121.965.965,0,0,1-.776-.409.761.761,0,0,1-.089-.724,7.515,7.515,0,0,1,2.145-2.842,15.981,15.981,0,0,1-4.258.739,9.1,9.1,0,0,1-2.349-.294.739.739,0,0,1-.524-.755.676.676,0,0,1,.556-.671,24.215,24.215,0,0,0,4.279-1.332c-.572.089-1.143.189-1.7.283-1.316.226-2.68.456-4.054.65h-.142a1.091,1.091,0,0,1-1.049-.823.834.834,0,0,1,.482-.96l.136-.068-2.507.336h-.173a.986.986,0,0,1-.346-1.919c.692-.273,1.374-.524,2.05-.776-1.159.136-2.339.3-3.566.493h-.2a1.012,1.012,0,0,1-.341-1.977c.357-.136.724-.273,1.1-.4-.818.052-1.647.089-2.465.089-.524,0-.97,0-1.432-.042a.388.388,0,0,1-.351-.32.351.351,0,0,1,.2-.388,34.482,34.482,0,0,1,5.433-1.925h-.813c-.8,0-1.615,0-2.428.042s-1.652.047-2.475.047a24.363,24.363,0,0,1-3.959-.273.524.524,0,0,1-.488-.524.713.713,0,0,1,.43-.729c.3-.126.619-.241.949-.351a8.873,8.873,0,0,1-3.456-.871.622.622,0,0,1-.005-1.091c2.444-1.342,6.078-1.547,9.035-1.694-.315-.052-.619-.089-.918-.126a62.608,62.608,0,0,0-6.843-.294h-5.4a.755.755,0,0,1-.7-.614.64.64,0,0,1,.367-.745,22.778,22.778,0,0,1,6.361-1.767l-2.05-.257c-2.889-.362-5.873-.734-8.731-1.358a.561.561,0,0,1-.378-.273.671.671,0,0,1-.068-.451.419.419,0,0,1,.194-.4,11.216,11.216,0,0,1,4.232-1.369c.388-.068.771-.136,1.148-.22.724-.152,1.39-.283,2.024-.4l-1.206-.3c-4.006-.944-8.307-1.736-13.949-2.564a.525.525,0,0,1-.472-.524.687.687,0,0,1,.561-.656l.362-.037h.042a.629.629,0,0,1,.488-.4,58.923,58.923,0,0,1,9.964-.808c1.62,0,3.257.058,4.851.178.891.068,1.951.152,3.089.283-1.8-.608-3.6-1.117-5.422-1.573l-.676-.157c-4.316-1.017-9.208-2.171-13.634-2.171h-.073a.524.524,0,1,1,0-1.049c1.148-.032,2.318-.147,3.451-.262a40.278,40.278,0,0,1,4.09-.273h.058a57.112,57.112,0,0,1,7.656.566c.692.094,1.374.2,2.035.309-1.516-.661-2.947-1.216-4.347-1.7-4.269-1.458-8.993-2.863-14.431-4.3a.488.488,0,0,1,.115-.954,66.583,66.583,0,0,1,16.812,2.622l.357.11q-1.28-.771-2.522-1.573c-3.393-2.1-6.592-4.1-10.488-5.2a.488.488,0,0,1,0-.939,7.434,7.434,0,0,1,1.919-.241c3.021,0,6.146,1.652,8.915,3.11.933.493,1.809.954,2.622,1.332,2.79,1.279,5.412,2.622,8.548,4.253.734.383,1.484.755,2.234,1.122l-.052-.037c-2.145-1.458-4.452-2.879-6.293-4.017-1.411-.87-2.8-1.809-4.138-2.716a59.852,59.852,0,0,0-7.74-4.63.755.755,0,0,1-.409-.881.844.844,0,0,1,.829-.692c3.833,0,7.562,2.15,10.855,4.048.9.524,1.757,1.007,2.622,1.453.4.215.808.425,1.227.645-1.426-1.117-2.837-2.14-4.279-3.094a.96.96,0,0,1-.435-1.107,1.049,1.049,0,0,1,.981-.729,1.143,1.143,0,0,1,.451.094A50.37,50.37,0,0,1,292.246,620.8c6.922,3.22,13.467,8.946,20,17.515a35.548,35.548,0,0,0,11.259,9.927l1.159.629a50.006,50.006,0,0,1,6.933,4.248c.713-1.117,2.328-2.706,5.768-2.706a5.716,5.716,0,0,1,5.092,2.444,52.394,52.394,0,0,1,6.6-4.006l1.154-.629a35.434,35.434,0,0,0,11.248-9.937c6.518-8.579,13.052-14.316,19.974-17.546a50.291,50.291,0,0,1,15.837-11.6,1.146,1.146,0,0,1,.451-.094,1.049,1.049,0,0,1,.981.729.96.96,0,0,1-.435,1.106c-1.442.96-2.853,1.982-4.274,3.1l1.227-.645c.844-.446,1.7-.939,2.622-1.463,3.288-1.9,7.016-4.048,10.845-4.059a.855.855,0,0,1,.818.687.766.766,0,0,1-.409.881,60.489,60.489,0,0,0-7.709,4.688c-1.337.912-2.722,1.851-4.127,2.722-2.276,1.4-4.316,2.674-6.293,4.027l-.052.037c.75-.372,1.5-.745,2.229-1.128,2.622-1.353,5.548-2.884,8.542-4.258.829-.383,1.7-.85,2.622-1.342,2.758-1.463,5.889-3.146,8.915-3.146a7.344,7.344,0,0,1,1.909.241.472.472,0,0,1,.357.461.493.493,0,0,1-.351.477c-3.912,1.1-7.111,3.1-10.488,5.213-.834.524-1.673,1.049-2.528,1.573l.357-.11a65.271,65.271,0,0,1,16.781-2.669h0a.472.472,0,0,1,.488.419.483.483,0,0,1-.351.524c-5.49,1.474-10.21,2.863-14.468,4.353-1.395.477-2.832,1.049-4.342,1.7.661-.11,1.337-.215,2.029-.309a57.261,57.261,0,0,1,7.656-.582h.094a39.632,39.632,0,0,1,4.054.273c1.133.11,2.3.231,3.456.257a.524.524,0,1,1,0,1.049c-4.473,0-9.376,1.169-13.708,2.2l-.666.157c-1.825.435-3.613.949-5.422,1.573.928-.1,1.94-.2,3.094-.288,1.626-.126,3.288-.189,4.94-.189a59.007,59.007,0,0,1,9.89.786.64.64,0,0,1,.488.4h.037l.362.042a.676.676,0,0,1,.561.65.525.525,0,0,1-.467.524c-5.632.834-9.964,1.631-13.949,2.585-.409.094-.818.2-1.206.3.619.115,1.285.241,2.024.4.378.079.76.147,1.143.215a11.111,11.111,0,0,1,4.237,1.363.414.414,0,0,1,.194.4.655.655,0,0,1-.068.456.524.524,0,0,1-.372.273c-2.863.629-5.858,1.007-8.752,1.369l-2.029.262a22.883,22.883,0,0,1,6.371,1.752.65.65,0,0,1,.367.745.755.755,0,0,1-.7.614c-.933.026-1.856.031-2.774.031h-2.334a63.375,63.375,0,0,0-7.137.3c-.3.031-.6.073-.923.121,2.958.147,6.6.341,9.041,1.688a.629.629,0,0,1,.32.566.619.619,0,0,1-.32.524,8.914,8.914,0,0,1-3.456.876c.325.11.645.231.949.352a.729.729,0,0,1,.435.729.551.551,0,0,1-.488.5,24.432,24.432,0,0,1-4.022.278c-.8,0-1.61,0-2.417-.042s-1.573-.042-2.365-.042h-.876a34.33,34.33,0,0,1,5.433,1.972.351.351,0,0,1,.2.388.388.388,0,0,1-.351.32c-.472.031-.954.047-1.474.047-.8,0-1.615-.037-2.423-.089.372.131.739.267,1.1.4a1.012,1.012,0,0,1-.341,1.977h-.194c-1.227-.189-2.407-.351-3.566-.488.671.241,1.358.524,2.05.776a.991.991,0,0,1,.661,1.112,1,1,0,0,1-1.007.808h-.173l-2.5-.325.131.063a.844.844,0,0,1,.488.96,1.091,1.091,0,0,1-1.049.823h-.136c-1.379-.194-2.743-.425-4.069-.645l-1.694-.288a23.168,23.168,0,0,0,4.284,1.327.687.687,0,0,1,.556.671.745.745,0,0,1-.524.76,9.184,9.184,0,0,1-2.36.294,15.941,15.941,0,0,1-4.263-.692,7.61,7.61,0,0,1,2.155,2.842.76.76,0,0,1-.089.724.949.949,0,0,1-.776.409.8.8,0,0,1-.425-.121c-.692-.425-1.353-.891-2-1.348s-1.421-1-2.182-1.458a9.209,9.209,0,0,1,1.049,3.089.818.818,0,0,1-.2.645.713.713,0,0,1-.524.257.65.65,0,0,1-.5-.241,46.761,46.761,0,0,0-4.017-3.917,36.941,36.941,0,0,1,1.877,4.342.866.866,0,0,1-.094.8,1.049,1.049,0,0,1-.829.4.965.965,0,0,1-.823-.435c-.844-1.269-1.762-2.48-2.664-3.618a11.652,11.652,0,0,1-.052,2.973.848.848,0,0,1-.089.252l.325.047-.666.283a.968.968,0,0,1-.184.073h0a.713.713,0,0,1-.267.047.861.861,0,0,1-.225-.026.782.782,0,0,1-.451-.267,7.66,7.66,0,0,1-.991-1.573c.147,1.82.21,3.634.267,5.406l.037,1.049a.959.959,0,0,1-.262.708,1.085,1.085,0,0,1-.776.32,1.012,1.012,0,0,1-.886-.493,15.342,15.342,0,0,1-1.689-4.651c-.131,1.358-.278,2.722-.42,4.054-.1.892-.194,1.778-.283,2.664a.87.87,0,0,1-.844.781.76.76,0,0,1-.661-.4,10.179,10.179,0,0,1-1.238-4.138,13.7,13.7,0,0,1-1.825,5.438,1.049,1.049,0,0,1-.871.456,1.007,1.007,0,0,1-.718-.294.928.928,0,0,1-.252-.687c.037-.912.131-1.835.246-2.737l-.157.341c-.766,1.7-2.37,5.244-4.62,5.244a2.288,2.288,0,0,1-.7-.115.975.975,0,0,1-.6-.6h0a9.616,9.616,0,0,1-2.1,1.447c-.058.246-.126.5-.194.745s-.147.524-.21.818a2.731,2.731,0,0,1-.094.456,2.044,2.044,0,0,0-.089.5.625.625,0,0,0,0,.126.687.687,0,0,1,.026.283,1,1,0,0,0,0,.247,1.7,1.7,0,0,1,0,.367c-.378,4.279,1.112,7.672,2.842,11.6l.042.1c.7,1.573,1.2,3.949.3,5.333a2.506,2.506,0,0,1-2.26,1.049h-.089a1.128,1.128,0,0,1-.566.918,1.422,1.422,0,0,1-.708.178,2.5,2.5,0,0,1-.818-.163,5.4,5.4,0,0,1-.236.713v.063a1.008,1.008,0,0,1-1.495.556,1.667,1.667,0,0,1-1.106,1.049,1.8,1.8,0,0,1-.435.058,1.573,1.573,0,0,1-1.049-.414.728.728,0,0,1-.068.231,1,1,0,0,1-.981.713.928.928,0,0,1-.933-.724c-.058-.231-.11-.472-.157-.713-.047.241-.1.477-.152.713a.933.933,0,0,1-.944.624Z" transform="translate(-253.916 -607.81)" fill="#ffd768"/>
    <path id="Path_50" data-name="Path 50" d="M336.291,699.894a1.012,1.012,0,0,1-.986-.713l-.063-.231a1.6,1.6,0,0,1-1.049.414,1.725,1.725,0,0,1-.43-.058,1.662,1.662,0,0,1-1.112-1.049,1.049,1.049,0,0,1-1.51-.556l-.026-.068a5.242,5.242,0,0,1-.236-.7,2.521,2.521,0,0,1-.818.163,1.472,1.472,0,0,1-.708-.173,1.164,1.164,0,0,1-.572-.923h-.089a2.5,2.5,0,0,1-2.255-1.049c-.907-1.39-.414-3.739.288-5.333l.042-.1c1.725-3.933,3.215-7.342,2.827-11.6-.026-.2-.089-.75-.089-.75v-.194l.257-.052h-.288c-.037-.33-.073-.671-.1-1.012l-.257-1.1a7.788,7.788,0,0,1-3.183-1.856h0a.965.965,0,0,1-.593.593,2.316,2.316,0,0,1-.7.115c-2.25,0-3.854-3.54-4.625-5.244l-.152-.336c.115.9.215,1.814.246,2.732a.923.923,0,0,1-.246.687,1,1,0,0,1-.718.288,1.049,1.049,0,0,1-.871-.451,13.713,13.713,0,0,1-1.83-5.433,10.2,10.2,0,0,1-1.232,4.132.755.755,0,0,1-.666.4.87.87,0,0,1-.839-.781c-.094-.9-.189-1.793-.288-2.69-.147-1.322-.294-2.674-.425-4.027a15.426,15.426,0,0,1-1.689,4.657,1,1,0,0,1-.881.493,1.075,1.075,0,0,1-.776-.32.928.928,0,0,1-.262-.7l.031-1.049c.058-1.767.115-3.576.262-5.386a7.684,7.684,0,0,1-.986,1.6.808.808,0,0,1-.467.267.931.931,0,0,1-.215,0,.66.66,0,0,1-.257-.047h-.031l-.1-.042-.561-.22.21-.063a.708.708,0,0,1-.136-.325,11.4,11.4,0,0,1-.058-2.973c-.9,1.143-1.825,2.355-2.664,3.624a.965.965,0,0,1-.823.43,1.013,1.013,0,0,1-.823-.4.865.865,0,0,1-.1-.8,36.2,36.2,0,0,1,1.872-4.342,45.987,45.987,0,0,0-4.012,3.922.65.65,0,0,1-.5.241.724.724,0,0,1-.524-.257.844.844,0,0,1-.2-.645,9.113,9.113,0,0,1,1.049-3.089c-.755.456-1.474.965-2.176,1.458s-1.306.923-2,1.353a.8.8,0,0,1-.425.121.965.965,0,0,1-.776-.409.761.761,0,0,1-.089-.724,7.515,7.515,0,0,1,2.145-2.842,15.981,15.981,0,0,1-4.258.739,9.1,9.1,0,0,1-2.349-.294.739.739,0,0,1-.524-.755.676.676,0,0,1,.556-.671,24.215,24.215,0,0,0,4.279-1.332c-.572.089-1.143.189-1.7.283-1.316.226-2.68.456-4.054.65h-.142a1.091,1.091,0,0,1-1.049-.823.834.834,0,0,1,.482-.96l.136-.068-2.507.336h-.173a.986.986,0,0,1-.346-1.919c.692-.273,1.374-.524,2.05-.776-1.159.136-2.339.3-3.566.493h-.2a1.012,1.012,0,0,1-.341-1.977c.357-.136.724-.273,1.1-.4-.818.052-1.647.089-2.465.089-.524,0-.97,0-1.432-.042a.388.388,0,0,1-.351-.32.351.351,0,0,1,.2-.388,34.482,34.482,0,0,1,5.433-1.925h-.813c-.8,0-1.615,0-2.428.042s-1.652.047-2.475.047a24.363,24.363,0,0,1-3.959-.273.524.524,0,0,1-.488-.524.713.713,0,0,1,.43-.729c.3-.126.619-.241.949-.351a8.873,8.873,0,0,1-3.456-.871.622.622,0,0,1-.005-1.091c2.444-1.342,6.078-1.547,9.035-1.694-.315-.052-.619-.089-.918-.126a62.608,62.608,0,0,0-6.843-.294h-5.4a.755.755,0,0,1-.7-.614.64.64,0,0,1,.367-.745,22.778,22.778,0,0,1,6.361-1.767l-2.05-.257c-2.889-.362-5.873-.734-8.731-1.358a.561.561,0,0,1-.378-.273.671.671,0,0,1-.068-.451.419.419,0,0,1,.194-.4,11.216,11.216,0,0,1,4.232-1.369c.388-.068.771-.136,1.148-.22.724-.152,1.39-.283,2.024-.4l-1.206-.3c-4.006-.944-8.307-1.736-13.949-2.564a.525.525,0,0,1-.472-.524.687.687,0,0,1,.561-.656l.362-.037h.042a.629.629,0,0,1,.488-.4,58.923,58.923,0,0,1,9.964-.808c1.62,0,3.257.058,4.851.178.891.068,1.951.152,3.089.283-1.8-.608-3.6-1.117-5.422-1.573l-.676-.157c-4.316-1.017-9.208-2.171-13.634-2.171h-.073a.524.524,0,1,1,0-1.049c1.148-.032,2.318-.147,3.451-.262a40.278,40.278,0,0,1,4.09-.273h.058a57.112,57.112,0,0,1,7.656.566c.692.094,1.374.2,2.035.309-1.516-.661-2.947-1.216-4.347-1.7-4.269-1.458-8.993-2.863-14.431-4.3a.488.488,0,0,1,.115-.954,66.583,66.583,0,0,1,16.812,2.622l.357.11q-1.28-.771-2.522-1.573c-3.393-2.1-6.592-4.1-10.488-5.2a.488.488,0,0,1,0-.939,7.434,7.434,0,0,1,1.919-.241c3.021,0,6.146,1.652,8.915,3.11.933.493,1.809.954,2.622,1.332,2.79,1.279,5.412,2.622,8.548,4.253.734.383,1.484.755,2.234,1.122l-.052-.037c-2.145-1.458-4.452-2.879-6.293-4.017-1.411-.87-2.8-1.809-4.138-2.716a59.852,59.852,0,0,0-7.74-4.63.755.755,0,0,1-.409-.881.844.844,0,0,1,.829-.692c3.833,0,7.562,2.15,10.855,4.048.9.524,1.757,1.007,2.622,1.453.4.215.808.425,1.227.645-1.426-1.117-2.837-2.14-4.279-3.094a.96.96,0,0,1-.435-1.107,1.049,1.049,0,0,1,.981-.729,1.143,1.143,0,0,1,.451.094A50.37,50.37,0,0,1,292.246,620.8c6.922,3.22,13.467,8.946,20,17.515a35.548,35.548,0,0,0,11.259,9.927l1.159.629a50.006,50.006,0,0,1,6.933,4.248c.713-1.117,2.328-2.706,5.768-2.706a5.716,5.716,0,0,1,5.092,2.444,52.394,52.394,0,0,1,6.6-4.006l1.154-.629a35.434,35.434,0,0,0,11.248-9.937c6.518-8.579,13.052-14.316,19.974-17.546a50.291,50.291,0,0,1,15.837-11.6,1.146,1.146,0,0,1,.451-.094,1.049,1.049,0,0,1,.981.729.96.96,0,0,1-.435,1.106c-1.442.96-2.853,1.982-4.274,3.1l1.227-.645c.844-.446,1.7-.939,2.622-1.463,3.288-1.9,7.016-4.048,10.845-4.059a.855.855,0,0,1,.818.687.766.766,0,0,1-.409.881,60.489,60.489,0,0,0-7.709,4.688c-1.337.912-2.722,1.851-4.127,2.722-2.276,1.4-4.316,2.674-6.293,4.027l-.052.037c.75-.372,1.5-.745,2.229-1.128,2.622-1.353,5.548-2.884,8.542-4.258.829-.383,1.7-.85,2.622-1.342,2.758-1.463,5.889-3.146,8.915-3.146a7.344,7.344,0,0,1,1.909.241.472.472,0,0,1,.357.461.493.493,0,0,1-.351.477c-3.912,1.1-7.111,3.1-10.488,5.213-.834.524-1.673,1.049-2.528,1.573l.357-.11a65.271,65.271,0,0,1,16.781-2.669h0a.472.472,0,0,1,.488.419.483.483,0,0,1-.351.524c-5.49,1.474-10.21,2.863-14.468,4.353-1.395.477-2.832,1.049-4.342,1.7.661-.11,1.337-.215,2.029-.309a57.261,57.261,0,0,1,7.656-.582h.094a39.632,39.632,0,0,1,4.054.273c1.133.11,2.3.231,3.456.257a.524.524,0,1,1,0,1.049c-4.473,0-9.376,1.169-13.708,2.2l-.666.157c-1.825.435-3.613.949-5.422,1.573.928-.1,1.94-.2,3.094-.288,1.626-.126,3.288-.189,4.94-.189a59.007,59.007,0,0,1,9.89.786.64.64,0,0,1,.488.4h.037l.362.042a.676.676,0,0,1,.561.65.525.525,0,0,1-.467.524c-5.632.834-9.964,1.631-13.949,2.585-.409.094-.818.2-1.206.3.619.115,1.285.241,2.024.4.378.079.76.147,1.143.215a11.111,11.111,0,0,1,4.237,1.363.414.414,0,0,1,.194.4.655.655,0,0,1-.068.456.524.524,0,0,1-.372.273c-2.863.629-5.858,1.007-8.752,1.369l-2.029.262a22.883,22.883,0,0,1,6.371,1.752.65.65,0,0,1,.367.745.755.755,0,0,1-.7.614c-.933.026-1.856.031-2.774.031h-2.334a63.375,63.375,0,0,0-7.137.3c-.3.031-.6.073-.923.121,2.958.147,6.6.341,9.041,1.688a.629.629,0,0,1,.32.566.619.619,0,0,1-.32.524,8.914,8.914,0,0,1-3.456.876c.325.11.645.231.949.352a.729.729,0,0,1,.435.729.551.551,0,0,1-.488.5,24.432,24.432,0,0,1-4.022.278c-.8,0-1.61,0-2.417-.042s-1.573-.042-2.365-.042h-.876a34.33,34.33,0,0,1,5.433,1.972.351.351,0,0,1,.2.388.388.388,0,0,1-.351.32c-.472.031-.954.047-1.474.047-.8,0-1.615-.037-2.423-.089.372.131.739.267,1.1.4a1.012,1.012,0,0,1-.341,1.977h-.194c-1.227-.189-2.407-.351-3.566-.488.671.241,1.358.524,2.05.776a.991.991,0,0,1,.661,1.112,1,1,0,0,1-1.007.808h-.173l-2.5-.325.131.063a.844.844,0,0,1,.488.96,1.091,1.091,0,0,1-1.049.823h-.136c-1.379-.194-2.743-.425-4.069-.645l-1.694-.288a23.168,23.168,0,0,0,4.284,1.327.687.687,0,0,1,.556.671.745.745,0,0,1-.524.76,9.184,9.184,0,0,1-2.36.294,15.941,15.941,0,0,1-4.263-.692,7.61,7.61,0,0,1,2.155,2.842.76.76,0,0,1-.089.724.949.949,0,0,1-.776.409.8.8,0,0,1-.425-.121c-.692-.425-1.353-.891-2-1.348s-1.421-1-2.182-1.458a9.209,9.209,0,0,1,1.049,3.089.818.818,0,0,1-.2.645.713.713,0,0,1-.524.257.65.65,0,0,1-.5-.241,46.761,46.761,0,0,0-4.017-3.917,36.941,36.941,0,0,1,1.877,4.342.866.866,0,0,1-.094.8,1.049,1.049,0,0,1-.829.4.965.965,0,0,1-.823-.435c-.844-1.269-1.762-2.48-2.664-3.618a11.652,11.652,0,0,1-.052,2.973.848.848,0,0,1-.089.252l.325.047-.666.283a.968.968,0,0,1-.184.073h0a.713.713,0,0,1-.267.047.861.861,0,0,1-.225-.026.782.782,0,0,1-.451-.267,7.66,7.66,0,0,1-.991-1.573c.147,1.82.21,3.634.267,5.406l.037,1.049a.959.959,0,0,1-.262.708,1.085,1.085,0,0,1-.776.32,1.012,1.012,0,0,1-.886-.493,15.342,15.342,0,0,1-1.689-4.651c-.131,1.358-.278,2.722-.42,4.054-.1.892-.194,1.778-.283,2.664a.87.87,0,0,1-.844.781.76.76,0,0,1-.661-.4,10.179,10.179,0,0,1-1.238-4.138,13.7,13.7,0,0,1-1.825,5.438,1.049,1.049,0,0,1-.871.456,1.007,1.007,0,0,1-.718-.294.928.928,0,0,1-.252-.687c.037-.912.131-1.835.246-2.737l-.157.341c-.766,1.7-2.37,5.244-4.62,5.244a2.288,2.288,0,0,1-.7-.115.975.975,0,0,1-.6-.6h0a9.616,9.616,0,0,1-2.1,1.447c-.058.246-.126.5-.194.745s-.147.524-.21.818a2.731,2.731,0,0,1-.094.456,2.044,2.044,0,0,0-.089.5.625.625,0,0,0,0,.126.687.687,0,0,1,.026.283,1,1,0,0,0,0,.247,1.7,1.7,0,0,1,0,.367c-.378,4.279,1.112,7.672,2.842,11.6l.042.1c.7,1.573,1.2,3.949.3,5.333a2.506,2.506,0,0,1-2.26,1.049h-.089a1.128,1.128,0,0,1-.566.918,1.422,1.422,0,0,1-.708.178,2.5,2.5,0,0,1-.818-.163,5.4,5.4,0,0,1-.236.713v.063a1.008,1.008,0,0,1-1.495.556,1.667,1.667,0,0,1-1.106,1.049,1.8,1.8,0,0,1-.435.058,1.573,1.573,0,0,1-1.049-.414.728.728,0,0,1-.068.231,1,1,0,0,1-.981.713.928.928,0,0,1-.933-.724c-.058-.231-.11-.472-.157-.713-.047.241-.1.477-.152.713a.933.933,0,0,1-.944.624Z" transform="translate(-253.916 -607.81)" fill="#ffd768"/>
  </g>
</svg>
