<svg xmlns="http://www.w3.org/2000/svg" width="384.064" height="358.524" viewBox="0 0 384.064 358.524">
  <g id="sun" transform="translate(1.5 1.5)">
    <path id="Path_1" data-name="Path 1" d="M602.245,1218a10.509,10.509,0,0,1-4.639-3.314c-1.472-2.209-6.971-4.639-11.61-4.639s-10.113,2.455-11.586,4.639a10.51,10.51,0,0,1-4.64,3.314" transform="translate(-362.62 -1063.934)" fill="none" stroke="#ffd768" stroke-linecap="round" stroke-linejoin="round" stroke-width="3"/>
    <path id="Path_2" data-name="Path 2" d="M584.289,1215a4.909,4.909,0,1,1-1.481-3.516A4.909,4.909,0,0,1,584.289,1215Z" transform="translate(-355.783 -1063.877)" fill="none" stroke="#ffd768" stroke-linecap="round" stroke-linejoin="round" stroke-width="3"/>
    <path id="Path_3" data-name="Path 3" d="M569.18,1216.531a91.652,91.652,0,0,1,8.935-7.119,20.963,20.963,0,0,1,13.869-1.007c3.215,1.5,9.18,8.125,9.18,8.125" transform="translate(-363.478 -1067.396)" fill="none" stroke="#ffd768" stroke-linecap="round" stroke-linejoin="round" stroke-width="3"/>
    <path id="Path_4" data-name="Path 4" d="M586.213,1223.71a9.132,9.132,0,0,1,2.97,7.782c-.835,4.492-5.3,3.977-8.444,4.148s-4.909,4.148-8.3,3.976-5.13-3.8-8.272-3.976-7.634.344-8.469-4.148a9.106,9.106,0,0,1,2.995-7.781" transform="translate(-383.163 -1044.064)" fill="none" stroke="#ffd768" stroke-linecap="round" stroke-linejoin="round" stroke-width="3"/>
    <path id="Path_5" data-name="Path 5" d="M562.3,1252.472s-3.314-1.473-1.988-7.364,3.142-4.639,3.142-14.09V1210.08" transform="translate(-376.829 -1063.891)" fill="none" stroke="#ffd768" stroke-linecap="round" stroke-linejoin="round" stroke-width="3"/>
    <path id="Path_6" data-name="Path 6" d="M592.318,1235.741a54.822,54.822,0,0,1-6.8.344c-2.651-.123-3.83-.834-5.818-.761-3.977.172-3.78,1.5-6.112,1.571s-2.136-1.4-6.112-1.571c-1.988,0-3.167.638-5.818.761a55.207,55.207,0,0,1-6.8-.343" transform="translate(-384.309 -1027.178)" fill="none" stroke="#ffd768" stroke-linecap="round" stroke-linejoin="round" stroke-width="3"/>
    <path id="Path_7" data-name="Path 7" d="M578.713,1235.409s-4.148-2.16-5.3-1.816a31.147,31.147,0,0,0-4.909,2.97,29.989,29.989,0,0,0-4.909-2.97c-1.154-.344-5.3,1.816-5.3,1.816" transform="translate(-379.319 -1029.743)" fill="none" stroke="#ffd768" stroke-linecap="round" stroke-linejoin="round" stroke-width="3"/>
    <path id="Path_8" data-name="Path 8" d="M582.545,1236.61s-7.364,4.909-12.592,4.909-12.593-4.909-12.593-4.909" transform="translate(-380.672 -1025.298)" fill="none" stroke="#ffd768" stroke-linecap="round" stroke-linejoin="round" stroke-width="3"/>
    <path id="Path_9" data-name="Path 9" d="M567.62,1207.856s14.09-13.918,39.275,0" transform="translate(-365.747 -1076.125)" fill="none" stroke="#ffd768" stroke-linecap="round" stroke-linejoin="round" stroke-width="3"/>
    <path id="Path_10" data-name="Path 10" d="M543,1218a10.51,10.51,0,0,0,4.64-3.314c1.5-2.209,6.971-4.639,11.61-4.639s10.138,2.455,11.611,4.639A10.509,10.509,0,0,0,575.5,1218" transform="translate(-401.561 -1063.934)" fill="none" stroke="#ffd768" stroke-linecap="round" stroke-linejoin="round" stroke-width="3"/>
    <path id="Path_11" data-name="Path 11" d="M547.53,1215a4.909,4.909,0,1,0,4.909-4.909A4.909,4.909,0,0,0,547.53,1215Z" transform="translate(-394.972 -1063.876)" fill="none" stroke="#ffd768" stroke-linecap="round" stroke-linejoin="round" stroke-width="3"/>
    <path id="Path_12" data-name="Path 12" d="M575.775,1216.53a92.875,92.875,0,0,0-8.96-7.118,20.909,20.909,0,0,0-13.844-1.007c-3.216,1.5-9.181,8.125-9.181,8.125" transform="translate(-400.412 -1067.395)" fill="none" stroke="#ffd768" stroke-linecap="round" stroke-linejoin="round" stroke-width="3"/>
    <path id="Path_13" data-name="Path 13" d="M581.645,1207.856s-14.09-13.918-39.275,0" transform="translate(-402.478 -1076.125)" fill="none" stroke="#ffd768" stroke-linecap="round" stroke-linejoin="round" stroke-width="3"/>
    <circle id="Ellipse_2" data-name="Ellipse 2" cx="81.839" cy="81.839" r="81.839" transform="translate(108.693 83.055)" fill="none" stroke="#ffd768" stroke-linecap="round" stroke-linejoin="round" stroke-width="3"/>
    <path id="Path_15" data-name="Path 15" d="M558.4,1250.74a839.782,839.782,0,0,0,8.591,91.461l2.7,18.066,2.725-18.066a846.013,846.013,0,0,0,8.591-91.461,79.287,79.287,0,0,1-22.608,0Z" transform="translate(-379.16 -1004.744)" fill="none" stroke="#ffd768" stroke-linecap="round" stroke-linejoin="round" stroke-width="3"/>
    <path id="Path_16" data-name="Path 16" d="M596,1235.717a845.964,845.964,0,0,0,91.437-8.591l18.091-2.725-18.091-2.7A839.931,839.931,0,0,0,596,1213.11,81.725,81.725,0,0,1,596,1235.717Z" transform="translate(-324.464 -1059.483)" fill="none" stroke="#ffd768" stroke-linecap="round" stroke-linejoin="round" stroke-width="3"/>
    <path id="Path_17" data-name="Path 17" d="M594.908,1213.11a840,840,0,0,0-91.437,8.592l-18.091,2.724,18.091,2.7a839.881,839.881,0,0,0,91.437,8.592,81.716,81.716,0,0,1,0-22.608Z" transform="translate(-485.38 -1059.484)" fill="none" stroke="#ffd768" stroke-linecap="round" stroke-linejoin="round" stroke-width="3"/>
    <path id="Path_18" data-name="Path 18" d="M578.082,1209.7c-11.635-5.572-22.8-18.017-25.308-30.094s-6.211-29.628-22.8-29.063c0,0,14.139,9.205,13.648,24.841-.344,10.874-5.081,24.277,3.559,33.482s16.716,17.821,16.716,27.934a28.373,28.373,0,0,1-3.486,14.335h0a81.173,81.173,0,0,1,39.275-16.717S592.834,1216.765,578.082,1209.7Z" transform="translate(-420.516 -1150.524)" fill="none" stroke="#ffd768" stroke-linecap="round" stroke-linejoin="round" stroke-width="3"/>
    <path id="Path_19" data-name="Path 19" d="M589.231,1209.7c11.635-5.572,22.8-18.017,25.308-30.094s6.21-29.628,22.8-29.063c0,0-14.139,9.205-13.648,24.841.344,10.874,5.081,24.277-3.559,33.482s-16.716,17.821-16.716,27.934a28.375,28.375,0,0,0,3.486,14.335h0a81.174,81.174,0,0,0-39.275-16.717S574.479,1216.765,589.231,1209.7Z" transform="translate(-365.733 -1150.524)" fill="none" stroke="#ffd768" stroke-linecap="round" stroke-linejoin="round" stroke-width="3"/>
    <path id="Path_20" data-name="Path 20" d="M589.207,1285.3c11.66,5.572,22.828,18.042,25.332,30.094s6.21,29.652,22.78,29.088c0,0-14.114-9.205-13.623-24.866.319-10.874,5.081-24.277-3.559-33.482s-16.716-17.821-16.716-27.909a28.4,28.4,0,0,1,3.485-14.36h0a81.644,81.644,0,0,1-39.275,16.717S574.454,1278.226,589.207,1285.3Z" transform="translate(-365.733 -1014.752)" fill="none" stroke="#ffd768" stroke-linecap="round" stroke-linejoin="round" stroke-width="3"/>
    <path id="Path_21" data-name="Path 21" d="M578.082,1285.3c-11.635,5.572-22.8,18.042-25.332,30.094s-6.21,29.652-22.779,29.088c0,0,14.139-9.205,13.648-24.866-.344-10.874-5.106-24.277,3.559-33.482s16.716-17.821,16.716-27.909a28.4,28.4,0,0,0-3.486-14.36h0a81.738,81.738,0,0,0,39.275,16.717S592.834,1278.226,578.082,1285.3Z" transform="translate(-420.516 -1014.752)" fill="none" stroke="#ffd768" stroke-linecap="round" stroke-linejoin="round" stroke-width="3"/>
    <path id="Path_22" data-name="Path 22" d="M593.552,1232.253a843.639,843.639,0,0,0-70.744-58.569L508.08,1162.81l10.874,14.728a843.843,843.843,0,0,0,58.593,70.744,83.386,83.386,0,0,1,7.364-8.567,86.844,86.844,0,0,1,8.641-7.462Z" transform="translate(-452.359 -1132.653)" fill="none" stroke="#ffd768" stroke-linecap="round" stroke-linejoin="round" stroke-width="3"/>
    <path id="Path_23" data-name="Path 23" d="M583.1,1253.8a843.871,843.871,0,0,0,70.744,58.593l14.728,10.874L657.7,1308.544A843.847,843.847,0,0,0,599.1,1237.8a78.549,78.549,0,0,1-15.98,15.98Z" transform="translate(-343.229 -1023.567)" fill="none" stroke="#ffd768" stroke-linecap="round" stroke-linejoin="round" stroke-width="3"/>
    <path id="Path_24" data-name="Path 24" d="M599.08,1248.247a834.514,834.514,0,0,0,58.569-70.719l10.9-14.728-14.728,10.874a834.609,834.609,0,0,0-70.719,58.569,82.136,82.136,0,0,1,15.98,15.98Z" transform="translate(-343.229 -1132.668)" fill="none" stroke="#ffd768" stroke-linecap="round" stroke-linejoin="round" stroke-width="3"/>
    <path id="Path_25" data-name="Path 25" d="M577.543,1237.81a838.771,838.771,0,0,0-58.569,70.743L508.1,1323.282l14.728-10.874a839.385,839.385,0,0,0,70.719-58.569,81.336,81.336,0,0,1-15.98-16Z" transform="translate(-452.33 -1023.552)" fill="none" stroke="#ffd768" stroke-linecap="round" stroke-linejoin="round" stroke-width="3"/>
    <path id="Path_26" data-name="Path 26" d="M630.591,1232.772c5.6-11.635,18.042-22.8,30.094-25.332s29.653-6.21,29.088-22.78c0,0-9.2,14.139-24.841,13.648-10.9-.344-24.277-5.106-33.506,3.559s-17.821,16.716-27.91,16.716a28.246,28.246,0,0,1-14.335-3.485h0a81.321,81.321,0,0,1,16.716,39.275S623.521,1247.524,630.591,1232.772Z" transform="translate(-334.385 -1100.869)" fill="none" stroke="#ffd768" stroke-linecap="round" stroke-linejoin="round" stroke-width="3"/>
    <path id="Path_27" data-name="Path 27" d="M630.591,1243.9c5.6,11.66,18.042,22.828,30.094,25.332s29.653,6.21,29.088,22.78c0,0-9.2-14.115-24.841-13.624-10.9.319-24.277,5.081-33.506-3.559s-17.821-16.717-27.91-16.717a28.25,28.25,0,0,0-14.335,3.486h0A81.4,81.4,0,0,0,605.9,1222.32S623.521,1229.144,630.591,1243.9Z" transform="translate(-334.385 -1046.085)" fill="none" stroke="#ffd768" stroke-linecap="round" stroke-linejoin="round" stroke-width="3"/>
    <path id="Path_28" data-name="Path 28" d="M555.08,1243.911c-5.6,11.66-18.042,22.828-30.095,25.332s-29.652,6.21-29.088,22.78c0,0,9.205-14.114,24.841-13.648,10.9.344,24.277,5.105,33.506-3.559s17.8-16.692,27.91-16.692a28.4,28.4,0,0,1,14.335,3.461h0a81.178,81.178,0,0,1-16.716-39.275S562.027,1229.159,555.08,1243.911Z" transform="translate(-470.099 -1046.1)" fill="none" stroke="#ffd768" stroke-linecap="round" stroke-linejoin="round" stroke-width="3"/>
    <path id="Path_29" data-name="Path 29" d="M555.08,1232.772c-5.6-11.66-18.042-22.828-30.095-25.332s-29.652-6.21-29.088-22.78c0,0,9.205,14.139,24.841,13.648,10.9-.344,24.277-5.106,33.506,3.559s17.8,16.716,27.91,16.716a28.246,28.246,0,0,0,14.335-3.485h0a81.173,81.173,0,0,0-16.716,39.275S562.027,1247.524,555.08,1232.772Z" transform="translate(-470.099 -1100.869)" fill="none" stroke="#ffd768" stroke-linecap="round" stroke-linejoin="round" stroke-width="3"/>
  </g>
</svg>
