<svg xmlns="http://www.w3.org/2000/svg" width="50.562" height="50.534" viewBox="0 0 50.562 50.534">
  <g id="ico" transform="translate(0.532 0.5)">
    <path id="Path_52" data-name="Path 52" d="M9.594,3.153Q8.8,3.095,8,3.094V0q.912,0,1.823.068L9.594,3.153Zm6.2,1.393a21.671,21.671,0,0,0-3.048-.925L13.425.6a24.442,24.442,0,0,1,3.484,1.058L15.795,4.546Zm4.239,2.2q-.664-.443-1.358-.836L20.2,3.215a24.833,24.833,0,0,1,3.029,2.024l-1.9,2.442q-.629-.491-1.293-.935Zm5.675,5.539a21.63,21.63,0,0,0-2.021-2.463l2.24-2.135A25.82,25.82,0,0,1,28.241,10.5Zm2.3,4.184q-.3-.736-.662-1.448l2.763-1.393a24.682,24.682,0,0,1,1.393,3.367l-2.94.969q-.249-.757-.554-1.495Zm1.64,7.758a21.634,21.634,0,0,0-.309-3.172l3.048-.526a24.914,24.914,0,0,1,.359,3.621l-3.094.077Zm-.405,4.759c.1-.526.186-1.049.251-1.578l3.073.381a24.623,24.623,0,0,1-.712,3.574l-2.983-.826q.214-.766.371-1.55ZM26.3,36.345a21.858,21.858,0,0,0,1.5-2.81l2.828,1.253A24.975,24.975,0,0,1,28.916,38L26.3,36.345Zm-2.983,3.729q.566-.566,1.083-1.17l2.346,2.021q-.6.691-1.241,1.337l-2.188-2.188Z" transform="translate(16.768)" stroke="#190122" stroke-width="1"/>
    <path id="Path_53" data-name="Path 53" d="M24.764,3.094A21.661,21.661,0,1,0,40.081,40.073l2.188,2.188A24.759,24.759,0,1,1,24.764,0Z" transform="translate(0.004 0)" stroke="#190122" stroke-width="1"/>
    <path id="Path_54" data-name="Path 54" d="M8.547,3a1.547,1.547,0,0,1,1.547,1.547V20.669l10.051,5.743A1.547,1.547,0,0,1,18.61,29.1L7.78,22.91A1.547,1.547,0,0,1,7,21.567V4.547A1.547,1.547,0,0,1,8.547,3Z" transform="translate(14.673 6.283)" stroke="#190122" stroke-width="1"/>
  </g>
</svg>
