<?xml version="1.0" encoding="utf-8"?>
<!-- Generator: Adobe Illustrator 24.1.2, SVG Export Plug-In . SVG Version: 6.00 Build 0)  -->
<svg version="1.1" id="Camada_1" xmlns="http://www.w3.org/2000/svg" xmlns:xlink="http://www.w3.org/1999/xlink" x="0px" y="0px"
	 viewBox="0 0 24 24" style="enable-background:new 0 0 24 24;" xml:space="preserve">
<style type="text/css">
	.st0{fill:#FFFFFF;fill-opacity:0;}
	.st1{fill:#FFFFFF;}
</style>
<g>
	<g>
		<rect class="st0" width="24" height="24"/>
		<path class="st1" d="M20,11c-0.6,0-1,0.4-1,1v6c0,0.6-0.4,1-1,1H6c-0.6,0-1-0.4-1-1V6c0-0.6,0.4-1,1-1h6c0.6,0,1-0.4,1-1
			s-0.4-1-1-1H6C4.3,3,3,4.3,3,6v12c0,1.7,1.3,3,3,3h12c1.7,0,3-1.3,3-3v-6C21,11.4,20.6,11,20,11z"/>
		<path class="st1" d="M16,5h1.6l-6.3,6.3c-0.4,0.4-0.4,1,0,1.4c0,0,0,0,0,0c0.4,0.4,1,0.4,1.4,0c0,0,0,0,0,0L19,6.4V8
			c0,0.6,0.4,1,1,1s1-0.4,1-1V4c0-0.6-0.4-1-1-1h-4c-0.6,0-1,0.4-1,1S15.4,5,16,5z"/>
	</g>
</g>
</svg>
