<svg xmlns="http://www.w3.org/2000/svg" width="47.786" height="51.466" viewBox="0 0 47.786 51.466">
  <path id="house-door-fill" d="M19.879,50.627V37.743a1.974,1.974,0,0,1,1.838-1.82h7.352a1.977,1.977,0,0,1,1.838,1.838V50.627a1.838,1.838,0,0,0,1.838,1.838h14.7a1.838,1.838,0,0,0,1.838-1.838V24.9a1.838,1.838,0,0,0-.537-1.3l-4.977-4.973V6.516a1.838,1.838,0,0,0-1.838-1.838H38.259a1.838,1.838,0,0,0-1.838,1.838v4.753l-9.726-9.73a1.838,1.838,0,0,0-2.6,0L2.037,23.594A1.838,1.838,0,0,0,1.5,24.9V50.627a1.838,1.838,0,0,0,1.838,1.838h14.7A1.838,1.838,0,0,0,19.879,50.627Z" transform="translate(-1.5 -0.999)"/>
</svg>
