<svg xmlns="http://www.w3.org/2000/svg" width="46.2" height="57.746" viewBox="0 0 46.2 57.746">
  <path id="stars" d="M26.629,22.542a1.423,1.423,0,0,1,2.641,0l2.483,6.991a10.8,10.8,0,0,0,7.041,6.6l7.453,2.328a1.281,1.281,0,0,1,0,2.476l-7.457,2.328a10.8,10.8,0,0,0-7.037,6.6L29.27,56.851a1.421,1.421,0,0,1-2.641,0L24.146,49.86a10.8,10.8,0,0,0-7.037-6.6L9.652,40.935a1.279,1.279,0,0,1,0-2.476l7.457-2.328a10.8,10.8,0,0,0,7.037-6.6l2.483-6.991ZM11.758,4.139a.854.854,0,0,1,1.586,0l1.49,4.194a6.488,6.488,0,0,0,4.223,3.959l4.473,1.4a.769.769,0,0,1,0,1.487l-4.473,1.4a6.481,6.481,0,0,0-4.223,3.959l-1.49,4.194a.854.854,0,0,1-1.586,0l-1.49-4.194a6.481,6.481,0,0,0-4.223-3.959l-4.473-1.4a.769.769,0,0,1,0-1.487l4.473-1.4a6.481,6.481,0,0,0,4.223-3.959l1.49-4.194ZM38.97.353a.571.571,0,0,1,1.055,0l.993,2.793a4.316,4.316,0,0,0,2.818,2.642l2.98.931a.513.513,0,0,1,0,.989l-2.98.931a4.321,4.321,0,0,0-2.818,2.642l-.993,2.793a.571.571,0,0,1-1.055,0l-.993-2.793A4.321,4.321,0,0,0,35.159,8.64l-2.976-.931a.513.513,0,0,1,0-.989l2.98-.931a4.316,4.316,0,0,0,2.818-2.642L38.97.357Z" transform="translate(-0.999 -0.001)"/>
</svg>
