<svg xmlns="http://www.w3.org/2000/svg" width="51.211" height="51.094" viewBox="0 0 51.211 51.094">
  <g id="sun2" transform="translate(0.624 0.717)">
    <rect id="Rectangle_5" data-name="Rectangle 5" width="2.103" height="7.228" rx="1.052" transform="translate(23.924 6.049)" fill="#fdc300"/>
    <rect id="Rectangle_6" data-name="Rectangle 6" width="2.103" height="7.122" rx="1.052" transform="translate(23.924 36.286)" fill="#fdc300"/>
    <rect id="Rectangle_7" data-name="Rectangle 7" width="2.103" height="7.025" rx="1.052" transform="translate(43.503 23.756) rotate(90)" fill="#fdc300"/>
    <rect id="Rectangle_8" data-name="Rectangle 8" width="2.103" height="7.167" rx="1.052" transform="translate(13.473 23.756) rotate(90)" fill="#fdc300"/>
    <rect id="Rectangle_9" data-name="Rectangle 9" width="2.103" height="7.082" rx="1.052" transform="matrix(0.706, 0.708, -0.708, 0.706, 37.428, 10.844)" fill="#fdc300"/>
    <rect id="Rectangle_10" data-name="Rectangle 10" width="2.103" height="7.288" rx="1.052" transform="matrix(0.724, 0.689, -0.689, 0.724, 15.971, 32.233)" fill="#fdc300"/>
    <rect id="Rectangle_11" data-name="Rectangle 11" width="2.103" height="7.171" rx="1.052" transform="matrix(-0.706, 0.708, -0.708, -0.706, 17.617, 15.762)" fill="#fdc300"/>
    <rect id="Rectangle_12" data-name="Rectangle 12" width="2.103" height="7.211" rx="1.052" transform="matrix(-0.724, 0.689, -0.689, -0.724, 39.074, 37.351)" fill="#fdc300"/>
    <rect id="Rectangle_13" data-name="Rectangle 13" width="2.103" height="15.523" rx="1.052" transform="translate(34.506 -0.627) rotate(23.27)" fill="#fdc300"/>
    <rect id="Rectangle_14" data-name="Rectangle 14" width="2.103" height="15.523" rx="1.052" transform="translate(19.557 35.194) rotate(21.95)" fill="#fdc300"/>
    <rect id="Rectangle_15" data-name="Rectangle 15" width="2.103" height="15.523" rx="1.052" transform="translate(21.549 13.545) rotate(156.74)" fill="#fdc300"/>
    <rect id="Rectangle_16" data-name="Rectangle 16" width="2.103" height="15.523" rx="1.052" transform="translate(36.183 49.518) rotate(158.05)" fill="#fdc300"/>
    <rect id="Rectangle_17" data-name="Rectangle 17" width="2.103" height="15.523" rx="1.052" transform="translate(49.84 13.868) rotate(69.2)" fill="#fdc300"/>
    <rect id="Rectangle_18" data-name="Rectangle 18" width="2.103" height="15.523" rx="1.052" transform="translate(13.784 28.352) rotate(68.04)" fill="#fdc300"/>
    <rect id="Rectangle_19" data-name="Rectangle 19" width="2.103" height="15.523" rx="1.052" transform="translate(14.634 19.188) rotate(110.8)" fill="#fdc300"/>
    <rect id="Rectangle_20" data-name="Rectangle 20" width="2.103" height="15.523" rx="1.052" transform="translate(50.568 33.992) rotate(111.96)" fill="#fdc300"/>
    <path id="Path_48" data-name="Path 48" d="M360.3,698a9.5,9.5,0,1,0,9.5,9.5,9.5,9.5,0,0,0-9.5-9.5Zm.069,16.793a3.061,3.061,0,1,1,0,.016Z" transform="translate(-335.329 -682.706)" fill="#fdc300"/>
  </g>
</svg>
